<svg id="Layer_1" data-name="Layer 1" xmlns="http://www.w3.org/2000/svg" viewBox="0 0 224 150"><defs><style>.cls-1{fill:#1b2535;}</style></defs><title>Artboard 2</title><path class="cls-1" d="M108.47,104.12l6.77-9.31c-.67-.69-4.44-12.29-4.44-12.29l-6.58,8.55,4.25,13M71.32,46.64C68.67,52.33,53.1,71.3,53.1,71.3H77.74s-4.76-14.73-5.58-18a24.77,24.77,0,0,1-.52-6.47l-.32-.14m94.77,0c-2.64,5.68-18.24,24.66-18.24,24.66h24.69s-4.82-14.73-5.62-18a27.69,27.69,0,0,1-.47-6.47l-.36-.14M193.52,75c4.26,12.06,13.19,43.39,16.71,45.88H186.95a37,37,0,0,0-1.12-8.22c-1-3.57-9.38-30.66-9.38-30.66h-37l-5.81,8.23s7,21.87,7.42,22.93c.74,1.93,4.09,7.72,4.09,7.72H122.82s-.59-3.31-.8-4.71c-.2-1.13-2.15-7.27-2.15-7.27s-5.07,5.53-6.42,8.09-2,3.89-2,3.89H94s-.59-3.31-.82-4.71c-.17-1.13-2.28-7.78-2.28-7.78s-4.91,5.93-6.31,8.49-1.95,4-1.95,4H65.36s4.88-4.64,6.54-6.66c2.89-3.34,13.62-17.36,13.62-17.36L81.22,82H44.54s-20.93,27.51-21.77,28.35-7,9.59-7.06,10.52H4.81V114l.43-.44c.35-.23,15.87-19.5,30.13-38.53C48.18,58.5,60.24,42.36,61.28,40.81c2.55-3.69,6.24-11.73,6.24-11.73h19s.59,7.39,1.12,9.14,12.06,39.55,12.31,40L106.33,70,95.41,36.37s-2.56-6.32-3.4-7.29h22.18a19.68,19.68,0,0,0,.73,6c.9,2.78,5.66,19.9,5.66,19.9s15.09-18.92,16-20.31a12.6,12.6,0,0,0,1.86-5.62h18.47s-3.36,2.48-9.3,10c-2,2.49-21.49,27.31-21.49,27.31s1.68,5.79,2.5,8.68c.23.83.4,1.4.4,1.46s.42-.5,1.17-1.46c5-6.34,27.92-36.36,29.34-38.95a62.37,62.37,0,0,0,3.69-7h18a47.5,47.5,0,0,0,1,6.86Z"/></svg>