<?xml version="1.0" encoding="utf-8"?>
<!-- Generator: Adobe Illustrator 19.1.0, SVG Export Plug-In . SVG Version: 6.00 Build 0)  -->
<svg version="1.1" id="Layer_1" xmlns="http://www.w3.org/2000/svg" xmlns:xlink="http://www.w3.org/1999/xlink" x="0px" y="0px"
	 viewBox="0 0 114 76.5" style="enable-background:new 0 0 114 76.5;" xml:space="preserve">
<style type="text/css">
	.st0{fill:none;stroke:#43628D;stroke-width:5;stroke-miterlimit:10;}
	.st1{fill:#1B2535;}
	.st2{fill:none;stroke:#1B2535;stroke-width:5;stroke-miterlimit:10;}
	.st3{fill:none;stroke:#231F20;stroke-width:5;stroke-linecap:round;stroke-linejoin:round;stroke-miterlimit:10;}
	.st4{fill:none;stroke:#231F20;stroke-width:5;stroke-linecap:round;stroke-miterlimit:10;}
	.st5{fill:#231F20;}
	.st6{fill:none;stroke:#43628D;stroke-width:4.9533;stroke-miterlimit:10;}
	.st7{fill:none;stroke:#1B2535;stroke-width:5.7258;stroke-miterlimit:10;}
</style>
<g>
	<path class="st1" d="M35.1,76.5L48.3,39c0,0-42.5,2.2-47.7,16.2C-5.3,71.2,35.1,76.5,35.1,76.5z"/>
	<path class="st1" d="M59,39.4c0,0,44.3,2.8,41.6,20C98.3,74,59,76.4,59,76.4V39.4z"/>
	<path class="st1" d="M49.2,37.6L59,8.7v28.9c0,0,53.3,0.2,55-18.1C115.7,1.1,63.1,0,63.1,0S13.4,1.1,13.2,19.4
		C13,32.9,49.2,37.6,49.2,37.6z"/>
</g>
</svg>
