<?xml version="1.0" encoding="utf-8"?>
<!-- Generator: Adobe Illustrator 19.1.0, SVG Export Plug-In . SVG Version: 6.00 Build 0)  -->
<svg version="1.1" id="Layer_1" xmlns="http://www.w3.org/2000/svg" xmlns:xlink="http://www.w3.org/1999/xlink" x="0px" y="0px"
	 viewBox="0 0 92.7 73.6" style="enable-background:new 0 0 92.7 73.6;" xml:space="preserve">
<style type="text/css">
	.st0{fill:none;stroke:#43628D;stroke-width:5;stroke-miterlimit:10;}
	.st1{fill:#1B2535;}
	.st2{fill:none;stroke:#1B2535;stroke-width:5;stroke-miterlimit:10;}
	.st3{fill:none;stroke:#231F20;stroke-width:5;stroke-linecap:round;stroke-linejoin:round;stroke-miterlimit:10;}
	.st4{fill:none;stroke:#231F20;stroke-width:5;stroke-linecap:round;stroke-miterlimit:10;}
	.st5{fill:#231F20;}
	.st6{fill:none;stroke:#43628D;stroke-width:4.9533;stroke-miterlimit:10;}
	.st7{fill:none;stroke:#1B2535;stroke-width:5.7258;stroke-miterlimit:10;}
</style>
<g>
	<path class="st2" d="M50.2,71.1H21.6C11,71.1,2.5,62.6,2.5,52.1V39.4c0-21.6,15.3-25.4,22.9-25.4c3.7,0,9,0,11.4,0
		c3.7,0,7.6,1.9,7.6,5.7v1.9c0,3.8-3.8,5.7-7.6,5.7h-7.6c0,0-3.8,13.3-11.4,13.3"/>
	<path class="st2" d="M40.6,48.3h24.8c3.2,0,5.7,2.6,5.7,5.7c0,3.2-2.6,5.7-5.7,5.7H50.2"/>
	<path class="st2" d="M40.6,59.7h9.5c3.2,0,5.7,2.6,5.7,5.7c0,3.2-2.6,5.7-5.7,5.7h-5.7"/>
	<line class="st2" x1="90.2" y1="17.8" x2="44" y2="17.8"/>
	<path class="st2" d="M21.6,13.9V8.2c0-3.2,2.6-5.7,5.7-5.7h57.2c3.2,0,5.7,2.6,5.7,5.7v34.3c0,3.2-2.6,5.7-5.7,5.7H27.3
		c-3.2,0-5.7-2.6-5.7-5.7v-3.1"/>
	<line class="st2" x1="82.6" y1="25.4" x2="71.1" y2="25.4"/>
</g>
</svg>
