<svg xmlns="http://www.w3.org/2000/svg" width="24" height="24" viewBox="0 0 24 24"><g stroke="#000" stroke-linecap="round" stroke-linejoin="round" stroke-miterlimit="10" fill="none"><path d="M13 21.5h-7.5c-2.762 0-5-2.238-5-5v-3.334c0-5.666 4-6.666 6-6.666h3c.972 0 2 .5 2 1.5v.5c0 1-1 1.5-2 1.5h-2s-1 3.5-3 3.5M10.5 15.5h6.5c.828 0 1.5.672 1.5 1.5 0 .829-.672 1.5-1.5 1.5h-4M10.5 18.5h2.5c.828 0 1.5.672 1.5 1.5 0 .829-.672 1.5-1.5 1.5h-1.5M23.5 7.5h-12.104M5.5 6.5v-1.5c0-.828.672-1.5 1.5-1.5h15c.828 0 1.5.672 1.5 1.5v9c0 .829-.672 1.5-1.5 1.5h-15c-.828 0-1.5-.671-1.5-1.5v-.813M21.5 9.5h-3"/></g></svg>