<?xml version="1.0" encoding="utf-8"?>
<!-- Generator: Adobe Illustrator 17.1.0, SVG Export Plug-In . SVG Version: 6.00 Build 0)  -->
<!DOCTYPE svg PUBLIC "-//W3C//DTD SVG 1.1//EN" "http://www.w3.org/Graphics/SVG/1.1/DTD/svg11.dtd">
<svg version="1.1" id="Outline_Icons" xmlns="http://www.w3.org/2000/svg" xmlns:xlink="http://www.w3.org/1999/xlink" x="0px"
	 y="0px" width="24px" height="24px" viewBox="0 0 24 24" enable-background="new 0 0 24 24" xml:space="preserve">
<g>
	<path fill="none" stroke="#000000" stroke-linejoin="round" stroke-miterlimit="10" d="M17,21.505H2
		C1.176,21.502,0.5,20.824,0.5,20V2c0-0.825,0.676-1.5,1.5-1.5h13c0.825,0,1.5,0.675,1.5,1.5v13.521"/>
	<polyline fill="none" stroke="#000000" stroke-linecap="round" stroke-linejoin="round" stroke-miterlimit="10" points="
		14.938,17.5 2.5,17.5 2.5,2.5 14.5,2.5 14.5,13.938 	"/>
	<path fill="none" stroke="#000000" stroke-linecap="round" stroke-linejoin="round" stroke-miterlimit="10" d="M23.5,23.5l-3-4
		v-4.559c0-1.694-2.081-3.305-4-4.941"/>
	<path fill="none" stroke="#000000" stroke-linecap="round" stroke-linejoin="round" stroke-miterlimit="10" d="M17.5,16.5
		l-2.25-2.25c-0.414-0.414-1.086-0.414-1.5,0s-0.25,1.25,0,1.5L16.5,19c0,0,0,0,0,1s2,3.5,2,3.5"/>
	<line fill="none" stroke="#000000" stroke-linejoin="round" stroke-miterlimit="10" x1="6.031" y1="19.5" x2="9.969" y2="19.5"/>
	<g>
		<g>
			<g>
				<path d="M4.5,19C4.224,19,4,19.225,4,19.5S4.224,20,4.5,20S5,19.775,5,19.5S4.776,19,4.5,19L4.5,19z"/>
			</g>
		</g>
	</g>
	<g>
		<g>
			<g>
				<path d="M11.5,19c-0.276,0-0.5,0.225-0.5,0.5s0.224,0.5,0.5,0.5s0.5-0.225,0.5-0.5S11.776,19,11.5,19L11.5,19z"/>
			</g>
		</g>
	</g>
	<line fill="none" stroke="#000000" stroke-linejoin="round" stroke-miterlimit="10" x1="5" y1="13.5" x2="12" y2="13.5"/>
	<line fill="none" stroke="#000000" stroke-linejoin="round" stroke-miterlimit="10" x1="5" y1="11.5" x2="12" y2="11.5"/>
	<line fill="none" stroke="#000000" stroke-linejoin="round" stroke-miterlimit="10" x1="5" y1="9.5" x2="12" y2="9.5"/>
	<line fill="none" stroke="#000000" stroke-linejoin="round" stroke-miterlimit="10" x1="5" y1="7.5" x2="12" y2="7.5"/>
	<line fill="none" stroke="#000000" stroke-linejoin="round" stroke-miterlimit="10" x1="5" y1="5.5" x2="9" y2="5.5"/>
</g>
</svg>
