<?xml version="1.0" encoding="utf-8"?>
<!-- Generator: Adobe Illustrator 19.1.0, SVG Export Plug-In . SVG Version: 6.00 Build 0)  -->
<svg version="1.1" id="Layer_1" xmlns="http://www.w3.org/2000/svg" xmlns:xlink="http://www.w3.org/1999/xlink" x="0px" y="0px"
	 viewBox="0 0 96.7 98.7" style="enable-background:new 0 0 96.7 98.7;" xml:space="preserve">
<style type="text/css">
	.st0{fill:none;stroke:#43628D;stroke-width:5;stroke-miterlimit:10;}
	.st1{fill:#1B2535;}
	.st2{fill:none;stroke:#1B2535;stroke-width:5;stroke-miterlimit:10;}
	.st3{fill:none;stroke:#231F20;stroke-width:5;stroke-linecap:round;stroke-linejoin:round;stroke-miterlimit:10;}
	.st4{fill:none;stroke:#231F20;stroke-width:5;stroke-linecap:round;stroke-miterlimit:10;}
	.st5{fill:#231F20;}
	.st6{fill:none;stroke:#43628D;stroke-width:4.9533;stroke-miterlimit:10;}
	.st7{fill:none;stroke:#1B2535;stroke-width:5.7258;stroke-miterlimit:10;}
</style>
<g>
	<g>
		<path class="st4" d="M44.6,56.1c1,4-2.5,7.5-6.5,6.5c-1.9-0.4-3.4-2-3.8-3.8c-1-4,2.5-7.4,6.5-6.5C42.6,52.7,44.1,54.3,44.6,56.1z
			"/>
		<polyline class="st4" points="40.5,47.9 40.5,26.6 61.3,26.6 		"/>
		<path class="st4" d="M23.4,58.5V43.6c0-4.7,3.8-8.5,8.5-8.5h8.5"/>
		<line class="st4" x1="49" y1="56.4" x2="59.6" y2="56.4"/>
		<line class="st4" x1="23.4" y1="58.5" x2="29.8" y2="58.5"/>
		<line class="st4" x1="28.2" y1="45.8" x2="35.7" y2="45.8"/>
	</g>
	<g>
		<path class="st4" d="M68.2,88.3L8.6,88.1c-3.4,0-6.1-2.8-6.1-6.1V8.6c0-3.4,2.8-6.1,6.1-6.1h53c3.4,0,6.1,2.8,6.1,6.1v55.1"/>
		<polyline class="st4" points="61.3,71.8 10.7,71.8 10.7,10.7 59.6,10.7 59.6,57.3 		"/>
		<path class="st4" d="M94.2,96.2L82,79.9V61.4c0-6.9-6.4-13.5-14.3-20.1"/>
		<path class="st4" d="M71.8,67.7l-9.2-9.2c-1.7-1.7-4.4-1.7-6.1,0c-1.7,1.7-1,5.1,0,6.1l9,13c0.1,0.2,0.2,0.3,0.2,0.5V82
			c0,4.1,8.2,14.3,8.2,14.3"/>
		<line class="st4" x1="25" y1="79.9" x2="41.1" y2="79.9"/>
		<g>
			<path class="st4" d="M18.8,77.9c-1.1,0-2,0.9-2,2c0,1.1,0.9,2,2,2c1.1,0,2-0.9,2-2C20.8,78.8,19.9,77.9,18.8,77.9L18.8,77.9z"/>
		</g>
		<g>
			<path class="st4" d="M47.3,77.9c-1.1,0-2,0.9-2,2c0,1.1,0.9,2,2,2c1.1,0,2-0.9,2-2C49.4,78.8,48.5,77.9,47.3,77.9L47.3,77.9z"/>
		</g>
	</g>
</g>
</svg>
