<?xml version="1.0" encoding="utf-8"?>
<!-- Generator: Adobe Illustrator 19.1.0, SVG Export Plug-In . SVG Version: 6.00 Build 0)  -->
<svg version="1.1" id="Layer_1" xmlns="http://www.w3.org/2000/svg" xmlns:xlink="http://www.w3.org/1999/xlink" x="0px" y="0px"
	 viewBox="0 0 104.5 91.5" style="enable-background:new 0 0 104.5 91.5;" xml:space="preserve">
<style type="text/css">
	.st0{fill:none;stroke:#43628D;stroke-width:5;stroke-miterlimit:10;}
	.st1{fill:#1B2535;}
	.st2{fill:none;stroke:#1B2535;stroke-width:5;stroke-miterlimit:10;}
	.st3{fill:none;stroke:#231F20;stroke-width:5;stroke-linecap:round;stroke-linejoin:round;stroke-miterlimit:10;}
	.st4{fill:none;stroke:#231F20;stroke-width:5;stroke-linecap:round;stroke-miterlimit:10;}
	.st5{fill:#231F20;}
	.st6{fill:none;stroke:#43628D;stroke-width:4.9533;stroke-miterlimit:10;}
	.st7{fill:none;stroke:#1B2535;stroke-width:5.7258;stroke-miterlimit:10;}
</style>
<g>
	<path class="st0" d="M71.7,50h19.5L102,67.3c0,0,0,4.3,0,6.5s0,6.4,0,6.4H91.1"/>
	<polyline class="st0" points="47.9,80.4 71.7,80.4 71.7,37.1 47.9,37.1 	"/>
	<polyline class="st0" points="24.1,47.9 24.1,80.4 34.9,80.4 	"/>
	<circle class="st0" cx="84.7" cy="82.5" r="6.5"/>
	<circle class="st0" cx="41.4" cy="82.5" r="6.5"/>
	<path class="st0" d="M41.4,22c0,10.6-8.9,19.5-19.5,19.5C11.3,41.4,2.5,32.6,2.5,22C2.5,11.3,11.3,2.5,22,2.5
		C32.6,2.5,41.4,11.3,41.4,22z"/>
	<polyline class="st0" points="19.8,11.1 19.8,24.1 28.4,24.1 	"/>
	<line class="st0" x1="71.7" y1="67.3" x2="100.6" y2="67.3"/>
	<line class="st0" x1="71.4" y1="80.8" x2="71.5" y2="80.7"/>
	<line class="st0" x1="71.7" y1="80.3" x2="78.9" y2="80.3"/>
</g>
</svg>
