<svg xmlns="http://www.w3.org/2000/svg" width="24" height="24" viewBox="0 0 24 24"><g stroke="#000" stroke-linejoin="round" stroke-miterlimit="10" fill="none"><path d="M16.5 12.484h4.5l2.5 4v2.99h-2.5M11 19.506l5.5-.006v-10.016h-5.5M5.5 11.984v7.522h2.5"/><circle cx="19.5" cy="20" r="1.5"/><circle cx="9.5" cy="20" r="1.5"/><path d="M9.5 5.989c0 2.453-2.047 4.5-4.5 4.5s-4.5-2.047-4.5-4.5c0-2.454 2.047-4.5 4.5-4.5s4.5 2.046 4.5 4.5z"/><path stroke-linecap="round" d="M4.5 3.484v3h2M.5 14.484l3 .005M2 16.484l1.5.005M3 18.484l.5.005"/><path d="M16.5 16.484h6.688M16.438 19.6l.031-.033M16.511 19.484h1.656"/></g></svg>