<svg xmlns="http://www.w3.org/2000/svg" width="24" height="24" viewBox="0 0 24 24"><g stroke="#000" stroke-linecap="round" stroke-linejoin="round" stroke-miterlimit="10" fill="none"><path d="M10.227 9.028c.634-.634.686-1.61.115-2.182l-1.55-1.549c-.57-.57-1.547-.52-2.181.115l-.944.944c-.819.82-1.003 2.04-.444 2.926 2.398 3.803 5.692 7.097 9.496 9.495.884.559 2.107.374 2.925-.443l.944-.944c.634-.635.686-1.611.114-2.182l-1.549-1.549c-.571-.57-1.547-.52-2.181.114l-.574.573c-1.716-1.375-3.37-3.028-4.745-4.745l.574-.573zM18 18c.5.5 1.561 5.5-6 5.5-6.352 0-11.5-5.148-11.5-11.5 0-6.351 5.148-11.5 11.5-11.5s11.5 5.149 11.5 11.5c0 2.412-.742 4.651-2.012 6.5"/></g></svg>