<?xml version="1.0" encoding="utf-8"?>
<!-- Generator: Adobe Illustrator 17.1.0, SVG Export Plug-In . SVG Version: 6.00 Build 0)  -->
<!DOCTYPE svg PUBLIC "-//W3C//DTD SVG 1.1//EN" "http://www.w3.org/Graphics/SVG/1.1/DTD/svg11.dtd">
<svg version="1.1" id="Outline_Icons" xmlns="http://www.w3.org/2000/svg" xmlns:xlink="http://www.w3.org/1999/xlink" x="0px"
	 y="0px" width="24px" height="24px" viewBox="0 0 24 24" enable-background="new 0 0 24 24" xml:space="preserve">
<g>
	<path fill="none" stroke="#000000" stroke-linecap="round" stroke-linejoin="round" stroke-miterlimit="10" d="M22,23.5L19.5,20
		v-4.559c0-1.694-2.081-2.539-4-4.176"/>
	<path fill="none" stroke="#000000" stroke-linecap="round" stroke-linejoin="round" stroke-miterlimit="10" d="M17,17.5l-2.75-2.75
		c-0.414-0.414-1.086-0.414-1.5,0s-0.414,1.086,0,1.5l2.75,3.25v1.539c0,0.961,1.5,2.478,1.5,2.478"/>
	<path fill="none" stroke="#000000" stroke-linecap="round" stroke-linejoin="round" stroke-miterlimit="10" d="M12.5,21.5H7
		c-0.824,0-1.5-0.675-1.5-1.5V9c0-0.825,0.676-1.5,1.5-1.5h7c0.825,0,1.5,0.675,1.5,1.5v4.998"/>
	<g>
		<g>
			<g>
				<path d="M8.5,10C8.224,10,8,10.225,8,10.5S8.224,11,8.5,11S9,10.775,9,10.5S8.776,10,8.5,10L8.5,10z"/>
			</g>
		</g>
	</g>
	<g>
		<g>
			<g>
				<path d="M10.5,10c-0.276,0-0.5,0.225-0.5,0.5s0.224,0.5,0.5,0.5s0.5-0.225,0.5-0.5S10.776,10,10.5,10L10.5,10z"/>
			</g>
		</g>
	</g>
	<g>
		<g>
			<g>
				<path d="M12.5,10c-0.276,0-0.5,0.225-0.5,0.5s0.224,0.5,0.5,0.5s0.5-0.225,0.5-0.5S12.776,10,12.5,10L12.5,10z"/>
			</g>
		</g>
	</g>
	<g>
		<g>
			<g>
				<path d="M8.5,12C8.224,12,8,12.225,8,12.5S8.224,13,8.5,13S9,12.775,9,12.5S8.776,12,8.5,12L8.5,12z"/>
			</g>
		</g>
	</g>
	<g>
		<g>
			<g>
				<path d="M8.5,14C8.224,14,8,14.225,8,14.5S8.224,15,8.5,15S9,14.775,9,14.5S8.776,14,8.5,14L8.5,14z"/>
			</g>
		</g>
	</g>
	<g>
		<g>
			<g>
				<path d="M8.5,16C8.224,16,8,16.225,8,16.5S8.224,17,8.5,17S9,16.775,9,16.5S8.776,16,8.5,16L8.5,16z"/>
			</g>
		</g>
	</g>
	<g>
		<g>
			<g>
				<path d="M8.5,18C8.224,18,8,18.225,8,18.5S8.224,19,8.5,19S9,18.775,9,18.5S8.776,18,8.5,18L8.5,18z"/>
			</g>
		</g>
	</g>
	<g>
		<g>
			<g>
				<path d="M10.5,12c-0.276,0-0.5,0.225-0.5,0.5s0.224,0.5,0.5,0.5s0.5-0.225,0.5-0.5S10.776,12,10.5,12L10.5,12z"/>
			</g>
		</g>
	</g>
	<g>
		<g>
			<g>
				<path d="M10.5,14c-0.276,0-0.5,0.225-0.5,0.5s0.224,0.5,0.5,0.5s0.5-0.225,0.5-0.5S10.776,14,10.5,14L10.5,14z"/>
			</g>
		</g>
	</g>
	<g>
		<g>
			<g>
				<path d="M10.5,16c-0.276,0-0.5,0.225-0.5,0.5s0.224,0.5,0.5,0.5s0.5-0.225,0.5-0.5S10.776,16,10.5,16L10.5,16z"/>
			</g>
		</g>
	</g>
	<g>
		<g>
			<g>
				<path d="M10.5,18c-0.276,0-0.5,0.225-0.5,0.5s0.224,0.5,0.5,0.5s0.5-0.225,0.5-0.5S10.776,18,10.5,18L10.5,18z"/>
			</g>
		</g>
	</g>
	<g>
		<g>
			<g>
				<path d="M12.5,12c-0.276,0-0.5,0.225-0.5,0.5s0.224,0.5,0.5,0.5s0.5-0.225,0.5-0.5S12.776,12,12.5,12L12.5,12z"/>
			</g>
		</g>
	</g>
	<path fill="none" stroke="#000000" stroke-linecap="round" stroke-linejoin="round" stroke-miterlimit="10" d="M15.276,1.928
		c-1.35-0.901-2.97-1.429-4.714-1.429c-1.745,0-3.365,0.527-4.715,1.429"/>
	<path fill="none" stroke="#000000" stroke-linecap="round" stroke-linejoin="round" stroke-miterlimit="10" d="M14.167,3.592
		c-1.031-0.69-2.271-1.093-3.604-1.093S7.989,2.902,6.957,3.592"/>
	<path fill="none" stroke="#000000" stroke-linecap="round" stroke-linejoin="round" stroke-miterlimit="10" d="M13.059,5.256
		c-0.715-0.478-1.573-0.757-2.496-0.757c-0.924,0-1.782,0.279-2.496,0.757"/>
</g>
</svg>
