<?xml version="1.0" encoding="utf-8"?>
<!-- Generator: Adobe Illustrator 19.1.0, SVG Export Plug-In . SVG Version: 6.00 Build 0)  -->
<svg version="1.1" id="Layer_1" xmlns="http://www.w3.org/2000/svg" xmlns:xlink="http://www.w3.org/1999/xlink" x="0px" y="0px"
	 viewBox="0 0 70.7 99.5" style="enable-background:new 0 0 70.7 99.5;" xml:space="preserve">
<style type="text/css">
	.st0{fill:none;stroke:#43628D;stroke-width:5;stroke-miterlimit:10;}
	.st1{fill:#1B2535;}
	.st2{fill:none;stroke:#1B2535;stroke-width:5;stroke-miterlimit:10;}
	.st3{fill:none;stroke:#231F20;stroke-width:5;stroke-linecap:round;stroke-linejoin:round;stroke-miterlimit:10;}
	.st4{fill:none;stroke:#231F20;stroke-width:5;stroke-linecap:round;stroke-miterlimit:10;}
	.st5{fill:#231F20;}
	.st6{fill:none;stroke:#43628D;stroke-width:4.9533;stroke-miterlimit:10;}
	.st7{fill:none;stroke:#1B2535;stroke-width:5.7258;stroke-miterlimit:10;}
</style>
<g>
	<path class="st3" d="M68.2,96.9L57.9,82.5V63.8c0-7-6.5-10.4-14.4-17.1"/>
	<path class="st4" d="M49.7,72.3L38.4,61c-1.7-1.7-4.5-1.7-6.2,0c-1.7,1.7-1.7,4.5,0,6.2l9.2,13.3v6.3c0,2.6,0.8,5.1,2.3,7.2l2.2,3"
		/>
	<path class="st4" d="M31.2,88.7H8.7c-3.4,0-6.2-2.8-6.2-6.2V37.4c0-3.4,2.8-6.2,6.2-6.2h28.7c3.4,0,6.2,2.8,6.2,6.2v20.5"/>
	<g>
		<path class="st5" d="M14.8,57.9c-1.1,0-2.1,0.9-2.1,2.1c0,1.1,0.9,2.1,2.1,2.1c1.1,0,2.1-0.9,2.1-2.1
			C16.9,58.8,15.9,57.9,14.8,57.9L14.8,57.9z"/>
	</g>
	<g>
		<path class="st5" d="M14.8,66.1c-1.1,0-2.1,0.9-2.1,2.1c0,1.1,0.9,2.1,2.1,2.1c1.1,0,2.1-0.9,2.1-2.1C16.9,67,15.9,66.1,14.8,66.1
			L14.8,66.1z"/>
	</g>
	<g>
		<path class="st5" d="M14.8,74.3c-1.1,0-2.1,0.9-2.1,2.1c0,1.1,0.9,2.1,2.1,2.1c1.1,0,2.1-0.9,2.1-2.1
			C16.9,75.3,15.9,74.3,14.8,74.3L14.8,74.3z"/>
	</g>
	<g>
		<path class="st5" d="M23,57.9c-1.1,0-2.1,0.9-2.1,2.1c0,1.1,0.9,2.1,2.1,2.1c1.1,0,2.1-0.9,2.1-2.1C25.1,58.8,24.2,57.9,23,57.9
			L23,57.9z"/>
	</g>
	<g>
		<path class="st5" d="M23,66.1c-1.1,0-2.1,0.9-2.1,2.1c0,1.1,0.9,2.1,2.1,2.1c1.1,0,2.1-0.9,2.1-2.1C25.1,67,24.2,66.1,23,66.1
			L23,66.1z"/>
	</g>
	<g>
		<path class="st5" d="M23,74.3c-1.1,0-2.1,0.9-2.1,2.1c0,1.1,0.9,2.1,2.1,2.1c1.1,0,2.1-0.9,2.1-2.1C25.1,75.3,24.2,74.3,23,74.3
			L23,74.3z"/>
	</g>
	<path class="st3" d="M42.6,8.4c-5.5-3.7-12.2-5.9-19.3-5.9c-7.2,0-13.8,2.2-19.4,5.9"/>
	<path class="st3" d="M38.1,15.2c-4.2-2.8-9.3-4.5-14.8-4.5s-10.6,1.7-14.8,4.5"/>
	<path class="st3" d="M33.5,22c-2.9-2-6.5-3.1-10.2-3.1c-3.8,0-7.3,1.1-10.2,3.1"/>
	<rect x="14.8" y="43.6" class="st4" width="16.2" height="8.2"/>
</g>
</svg>
