<?xml version="1.0" encoding="utf-8"?>
<!-- Generator: Adobe Illustrator 16.0.0, SVG Export Plug-In . SVG Version: 6.00 Build 0)  -->
<!DOCTYPE svg PUBLIC "-//W3C//DTD SVG 1.1//EN" "http://www.w3.org/Graphics/SVG/1.1/DTD/svg11.dtd">
<svg version="1.1" id="Outline_Icons" xmlns="http://www.w3.org/2000/svg" xmlns:xlink="http://www.w3.org/1999/xlink" x="0px"
	 y="0px" width="24px" height="24px" viewBox="0 0 24 24" enable-background="new 0 0 24 24" xml:space="preserve">
<g>
	<path d="M14,15.723V2.459c0-1.379-1.122-2.5-2.5-2.5S9,1.08,9,2.459v13.264c-1.241,0.831-2,2.237-2,3.736
		c0,2.481,2.019,4.5,4.5,4.5s4.5-2.019,4.5-4.5C16,17.96,15.241,16.554,14,15.723z M11.5,22.959c-1.93,0-3.5-1.57-3.5-3.5
		c0-1.241,0.671-2.401,1.75-3.026C9.905,16.344,10,16.179,10,16V2.459c0-0.827,0.673-1.5,1.5-1.5s1.5,0.673,1.5,1.5V16
		c0,0.179,0.095,0.344,0.25,0.433c1.08,0.625,1.75,1.785,1.75,3.026C15,21.389,13.43,22.959,11.5,22.959z"/>
	<path d="M12,18.051V7.459c0-0.276-0.224-0.5-0.5-0.5S11,7.183,11,7.459v10.592c-0.581,0.207-1,0.758-1,1.408
		c0,0.827,0.673,1.5,1.5,1.5s1.5-0.673,1.5-1.5C13,18.809,12.581,18.258,12,18.051z M11.5,19.959c-0.276,0-0.5-0.225-0.5-0.5
		s0.224-0.5,0.5-0.5s0.5,0.225,0.5,0.5S11.776,19.959,11.5,19.959z"/>
</g>
</svg>
