<?xml version="1.0" encoding="utf-8"?>
<!-- Generator: Adobe Illustrator 19.1.0, SVG Export Plug-In . SVG Version: 6.00 Build 0)  -->
<svg version="1.1" id="Layer_1" xmlns="http://www.w3.org/2000/svg" xmlns:xlink="http://www.w3.org/1999/xlink" x="0px" y="0px"
	 viewBox="0 0 136.7 56.9" style="enable-background:new 0 0 136.7 56.9;" xml:space="preserve">
<style type="text/css">
	.st0{fill:none;stroke:#43628D;stroke-width:5;stroke-miterlimit:10;}
	.st1{fill:#1B2535;}
	.st2{fill:none;stroke:#1B2535;stroke-width:5;stroke-miterlimit:10;}
	.st3{fill:none;stroke:#231F20;stroke-width:5;stroke-linecap:round;stroke-linejoin:round;stroke-miterlimit:10;}
	.st4{fill:none;stroke:#231F20;stroke-width:5;stroke-linecap:round;stroke-miterlimit:10;}
	.st5{fill:#231F20;}
	.st6{fill:none;stroke:#43628D;stroke-width:4.9533;stroke-miterlimit:10;}
	.st7{fill:none;stroke:#1B2535;stroke-width:5.7258;stroke-miterlimit:10;}
</style>
<g>
	<path class="st6" d="M104.5,15.4h19.1l10.6,17.3c0,0,0,4.3,0,6.5s0,6.4,0,6.4h-10.6"/>
	<polyline class="st6" points="81.2,45.8 104.5,45.8 104.5,2.5 2.5,2.5 	"/>
	<polyline class="st6" points="2.5,2.5 2.5,45.8 68.4,45.8 	"/>
	<ellipse class="st6" cx="117.2" cy="47.9" rx="6.4" ry="6.5"/>
	<ellipse class="st6" cx="74.8" cy="47.9" rx="6.4" ry="6.5"/>
	<path class="st6" d="M29.9,47.7c0,3.6-2.8,6.5-6.4,6.5s-6.4-2.9-6.4-6.5"/>
	<line class="st6" x1="104.5" y1="32.7" x2="132.9" y2="32.7"/>
	<line class="st6" x1="104.2" y1="46.2" x2="104.4" y2="46.1"/>
	<line class="st6" x1="104.5" y1="45.7" x2="111.6" y2="45.7"/>
</g>
</svg>
