<?xml version="1.0" encoding="utf-8"?>
<!-- Generator: Adobe Illustrator 17.1.0, SVG Export Plug-In . SVG Version: 6.00 Build 0)  -->
<!DOCTYPE svg PUBLIC "-//W3C//DTD SVG 1.1//EN" "http://www.w3.org/Graphics/SVG/1.1/DTD/svg11.dtd">
<svg version="1.1" id="Filled_Icon" xmlns="http://www.w3.org/2000/svg" xmlns:xlink="http://www.w3.org/1999/xlink" x="0px"
	 y="0px" width="24px" height="24px" viewBox="0 0 24 24" enable-background="new 0 0 24 24" xml:space="preserve">
<g>
	<circle cx="19.494" cy="20.48" r="1.749"/>
	<circle cx="9.502" cy="20.48" r="1.749"/>
	<path d="M5.005,10.993c2.709,0,4.997-2.288,4.997-4.997C10.002,3.288,7.714,1,5.005,1C2.297,1,0.009,3.288,0.009,5.996
		C0.009,8.705,2.297,10.993,5.005,10.993z M4,3.502c0-0.276,0.224-0.5,0.5-0.5S5,3.226,5,3.502V6h1.498c0.276,0,0.5,0.223,0.5,0.5
		c0,0.275-0.224,0.5-0.5,0.5H4.5C4.224,7,4,6.775,4,6.5V3.502z"/>
	<path d="M3.476,15c0.276,0,0.5-0.223,0.5-0.5c0-0.276-0.224-0.5-0.5-0.5H0.5C0.224,14,0,14.222,0,14.497
		c0,0.276,0.224,0.501,0.5,0.501L3.476,15L3.476,15z"/>
	<path d="M3.5,16H2c-0.276,0-0.5,0.224-0.5,0.5C1.5,16.777,1.724,17,2,17h1.5C3.776,17,4,16.777,4,16.5C4,16.224,3.776,16,3.5,16z"
		/>
	<path d="M3.5,18H3c-0.276,0-0.5,0.224-0.5,0.5C2.5,18.777,2.724,19,3,19h0.5C3.776,19,4,18.777,4,18.5C4,18.224,3.776,18,3.5,18z"
		/>
	<path d="M15.5,9h-5.334c-1.055,1.779-2.993,3.493-5.161,3.493H5.004L5,20.489c0,0.133,0.053,0.26,0.147,0.354
		C5.24,20.938,5.367,20.989,5.5,21h1.819c-0.04-0.167-0.066-0.34-0.066-0.52c0-1.239,1.009-2.248,2.249-2.248
		c1.239,0,2.249,1.009,2.249,2.248c0,0.18-0.026,0.352-0.066,0.52H15.5c0.276-0.011,0.5-0.233,0.5-0.511V9.5
		C16,9.225,15.776,9,15.5,9z"/>
	<path d="M23.999,16.985c-0.001-0.058-0.014-0.115-0.034-0.17c-0.006-0.015-0.013-0.028-0.02-0.043
		c-0.008-0.016-0.013-0.032-0.021-0.047l-2.5-4.489C21.332,12.09,21.172,12,21,12h-3.5c-0.276,0-0.5,0.225-0.5,0.5v4.489v3.5
		c0,0.205,0.123,0.383,0.297,0.464c-0.032-0.153-0.052-0.31-0.052-0.473c0-1.239,1.009-2.249,2.249-2.249
		c1.239,0,2.248,1.01,2.248,2.249c0,0.18-0.026,0.352-0.066,0.52H23.5c0.276-0.011,0.5-0.233,0.5-0.511v-3.5
		C24,16.988,23.999,16.987,23.999,16.985z M18,16v-3h2.723l1.777,3H18z"/>
</g>
</svg>
